<?xml version="1.0" encoding="UTF-8" standalone="no"?>
<svg
   xmlns:dc="http://purl.org/dc/elements/1.1/"
   xmlns:cc="http://creativecommons.org/ns#"
   xmlns:rdf="http://www.w3.org/1999/02/22-rdf-syntax-ns#"
   xmlns:svg="http://www.w3.org/2000/svg"
   xmlns="http://www.w3.org/2000/svg"
   xmlns:sodipodi="http://sodipodi.sourceforge.net/DTD/sodipodi-0.dtd"
   xmlns:inkscape="http://www.inkscape.org/namespaces/inkscape"
   width="48"
   height="48"
   viewBox="0 0 48 48"
   id="svg2"
   version="1.1"
   inkscape:version="0.48.4 r9939"
   sodipodi:docname="icon.svg">
  <metadata
     id="metadata10">
    <rdf:RDF>
      <cc:Work
         rdf:about="">
        <dc:format>image/svg+xml</dc:format>
        <dc:type
           rdf:resource="http://purl.org/dc/dcmitype/StillImage" />
        <dc:title></dc:title>
      </cc:Work>
    </rdf:RDF>
  </metadata>
  <defs
     id="defs8" />
  <sodipodi:namedview
     pagecolor="#ffffff"
     bordercolor="#666666"
     borderopacity="1"
     objecttolerance="10"
     gridtolerance="10"
     guidetolerance="10"
     inkscape:pageopacity="0"
     inkscape:pageshadow="2"
     inkscape:window-width="1920"
     inkscape:window-height="1053"
     id="namedview6"
     showgrid="false"
     inkscape:zoom="9.8333333"
     inkscape:cx="7.3828454"
     inkscape:cy="10.020564"
     inkscape:window-x="1920"
     inkscape:window-y="0"
     inkscape:window-maximized="1"
     inkscape:current-layer="svg2" />
  <path
     d="m 41.898506,9.6893182 -2.69,-1.11 0,18.0499998 4.85,-11.71 c 0.84,-2.03 -0.13,-4.38 -2.16,-5.2299998 z m -39,7.4199998 9.92,23.93 c 0.62,1.5 2.08,2.43 3.61,2.46 0.53,0.01 1.07,-0.09 1.6,-0.3 l 14.73,-6.1 c 1.5,-0.62 2.42,-2.07 2.46,-3.6 0.01,-0.54 -0.08,-1.08 -0.3,-1.61 l -9.91,-23.9299998 c -0.63,-1.52 -2.1,-2.44 -3.66,-2.46 -0.52,0 -1.04,0.09 -1.55,0.3 l -14.73,6.0999998 c -2.03,0.84 -3.01,3.18 -2.17,5.21 z m 32.31,-7.6099998 c 0,-2.2 -1.8,-4 -4,-4 l -2.91,0 6.91,16.6799998 z"
     id="path4"
     inkscape:connector-curvature="0"
     sodipodi:nodetypes="cccccccccccccccccssccs"
     style="fill:#ffffff" />
</svg>
